<?xml version="1.0" encoding="UTF-8" standalone="no"?><!DOCTYPE svg PUBLIC "-//W3C//DTD SVG 1.1//EN" "http://www.w3.org/Graphics/SVG/1.1/DTD/svg11.dtd"><svg width="100%" height="100%" viewBox="0 0 2866 2866" version="1.1" xmlns="http://www.w3.org/2000/svg" xmlns:xlink="http://www.w3.org/1999/xlink" xml:space="preserve" xmlns:serif="http://www.serif.com/" style="fill-rule:evenodd;clip-rule:evenodd;stroke-linejoin:round;stroke-miterlimit:2;"><g><path d="M2344.6,2851.11l-1823.56,0c-279.723,0 -506.457,-226.793 -506.457,-506.516l0,-1823.56c0,-279.724 226.734,-506.457 506.457,-506.457l1823.56,0c279.723,0 506.516,226.733 506.516,506.457l0,1823.56c0,279.723 -226.793,506.516 -506.516,506.516Z" style="fill:#425874;fill-rule:nonzero;stroke:#324b68;stroke-width:29.17px;"/><path d="M831.325,1744.42l0,-264.712l244.437,0c42.703,0.419 75.717,5.981 99.282,16.806c42.165,19.259 63.277,54.725 63.277,106.399c-0,61.064 -21.77,102.392 -65.311,123.983c-23.923,11.722 -57.535,17.524 -100.538,17.524l-241.147,-0Zm0,-648.143l216.088,0c47.547,0 86.662,5.144 117.344,15.55c35.586,14.773 53.349,45.335 53.349,91.567c-0,41.806 -13.457,70.873 -40.371,87.26c-26.854,16.388 -61.901,24.581 -105.023,24.581l-241.387,0l0,-218.958Zm389.771,807.113c43.122,-8.911 80.502,-25.538 112.2,-49.82c28.11,-21.113 51.615,-47.129 70.335,-78.11c29.486,-46.77 44.198,-99.521 44.198,-158.432c0,-56.997 -12.918,-105.502 -38.636,-145.454c-25.837,-40.012 -64.054,-69.198 -114.772,-87.619c33.373,-17.045 58.612,-35.945 75.777,-56.579c30.622,-36.782 45.993,-85.585 45.993,-146.231c-0,-58.851 -15.192,-109.389 -45.574,-151.614c-50.478,-68.66 -136.303,-103.947 -257.355,-105.741l-480.022,0l0,993.117l447.546,-0c50.418,-0 97.248,-4.546 140.31,-13.517Z" style="fill:#f0f3f5;fill-rule:nonzero;"/><path d="M1753.21,1363.26c27.153,-27.93 65.31,-41.925 114.592,-41.925c45.335,-0 83.313,13.217 113.935,39.533c30.622,26.375 47.667,65.131 51.136,116.028l-330.8,0c6.938,-47.787 23.984,-85.645 51.137,-113.636Zm-137.201,488.215c74.701,60.287 160.944,90.371 258.671,90.371c118.421,-0 210.525,-35.706 276.255,-107.117c42.344,-44.976 66.088,-89.234 71.231,-132.774l-196.051,-0c-11.364,21.59 -24.581,38.397 -39.533,50.478c-27.333,22.548 -62.859,33.732 -106.579,33.732c-41.268,-0 -76.554,-9.211 -105.861,-27.632c-48.205,-29.665 -73.863,-81.279 -76.793,-154.963l534.805,0c0.957,-63.397 -1.136,-112.021 -6.279,-145.753c-8.912,-57.595 -28.469,-108.193 -58.553,-151.793c-33.253,-49.462 -75.657,-85.706 -126.913,-108.612c-51.136,-22.966 -108.731,-34.39 -172.667,-34.39c-107.595,0 -195.154,33.911 -262.618,101.794c-67.404,67.822 -101.136,165.37 -101.136,292.582c0,135.825 37.321,233.791 112.021,294.077Z" style="fill:#f0f3f5;fill-rule:nonzero;"/><rect x="1639.45" y="980.906" width="431.577" height="100.179" style="fill:#f0f3f5;fill-rule:nonzero;"/></g></svg>