<?xml version="1.0" encoding="UTF-8" standalone="no"?><!DOCTYPE svg PUBLIC "-//W3C//DTD SVG 1.1//EN" "http://www.w3.org/Graphics/SVG/1.1/DTD/svg11.dtd"><svg width="100%" height="100%" viewBox="0 0 4567 2846" version="1.1" xmlns="http://www.w3.org/2000/svg" xmlns:xlink="http://www.w3.org/1999/xlink" xml:space="preserve" xmlns:serif="http://www.serif.com/" style="fill-rule:evenodd;clip-rule:evenodd;stroke-linejoin:round;stroke-miterlimit:2;"><g><ellipse cx="2277.09" cy="1440.79" rx="1900.14" ry="827.334" style="fill:#808da2;"/><ellipse cx="2166.11" cy="531.675" rx="682.471" ry="531.675" style="fill:#808da2;"/><path d="M3517.85,424.343c423.447,177.426 612.762,494.238 422.499,707.035c-190.263,212.798 -688.517,241.516 -1111.96,64.091c-423.447,-177.425 -612.762,-494.237 -422.499,-707.035c190.263,-212.798 688.517,-241.516 1111.96,-64.091Z" style="fill:#808da2;"/><path d="M3704.99,422.444c277.728,255.895 264.886,600.615 -28.66,769.317c-293.546,168.702 -757.348,97.913 -1035.08,-157.983c-277.728,-255.895 -264.886,-600.614 28.66,-769.316c293.546,-168.703 757.348,-97.913 1035.08,157.982Z" style="fill:#808da2;"/><path d="M4562.86,1421.82c-40.286,357.691 -447.346,628.332 -908.445,603.996c-461.098,-24.337 -802.745,-334.496 -762.459,-692.187c40.285,-357.691 447.346,-628.332 908.444,-603.995c461.099,24.337 802.746,334.495 762.46,692.186Z" style="fill:#808da2;"/><path d="M3878.42,2126.79c-253.492,239.916 -702.071,314.486 -1001.1,166.421c-299.03,-148.065 -336.002,-463.056 -82.51,-702.971c253.492,-239.916 702.071,-314.486 1001.1,-166.421c299.031,148.065 336.003,463.056 82.51,702.971Z" style="fill:#808da2;"/><path d="M3622.75,2703.46c-458.172,130.894 -964.179,17.304 -1129.27,-253.5c-165.087,-270.803 72.86,-596.93 531.032,-727.824c458.172,-130.893 964.179,-17.303 1129.27,253.5c165.087,270.804 -72.86,596.931 -531.032,727.824Z" style="fill:#808da2;"/><path d="M2438.08,2763.74c-396.521,-8.395 -696.117,-175.742 -668.614,-373.472c27.504,-197.73 371.759,-351.445 768.281,-343.051c396.522,8.395 696.118,175.743 668.614,373.472c-27.504,197.73 -371.759,351.446 -768.281,343.051Z" style="fill:#808da2;"/><path d="M885.574,2682.97c-378.712,-219.763 -461.149,-579.912 -183.975,-803.751c277.174,-223.84 809.67,-227.148 1188.38,-7.385c378.712,219.764 461.149,579.913 183.975,803.752c-277.174,223.839 -809.67,227.148 -1188.38,7.384Z" style="fill:#808da2;"/><path d="M37.736,1939.34c-131.606,-273.324 92.065,-569.808 499.17,-661.669c407.105,-91.862 844.469,55.463 976.074,328.787c131.606,273.323 -92.065,569.807 -499.17,661.669c-407.105,91.861 -844.469,-55.464 -976.074,-328.787Z" style="fill:#808da2;"/><path d="M145.357,1003.69c101.894,-296.779 510.907,-485.227 912.803,-420.564c401.895,64.664 645.458,358.11 543.563,654.888c-101.894,296.779 -510.907,485.227 -912.803,420.564c-401.895,-64.664 -645.458,-358.11 -543.563,-654.888Z" style="fill:#808da2;"/><path d="M958.031,457.552c349.19,-241.593 829.131,-304.675 1071.1,-140.783c241.965,163.893 154.912,493.095 -194.277,734.688c-349.189,241.592 -829.131,304.675 -1071.1,140.783c-241.964,-163.893 -154.912,-493.095 194.277,-734.688Z" style="fill:#808da2;"/></g></svg>