<?xml version="1.0" encoding="UTF-8" standalone="no"?><!DOCTYPE svg PUBLIC "-//W3C//DTD SVG 1.1//EN" "http://www.w3.org/Graphics/SVG/1.1/DTD/svg11.dtd"><svg width="100%" height="100%" viewBox="0 0 3604 2843" version="1.1" xmlns="http://www.w3.org/2000/svg" xmlns:xlink="http://www.w3.org/1999/xlink" xml:space="preserve" xmlns:serif="http://www.serif.com/" style="fill-rule:evenodd;clip-rule:evenodd;stroke-linejoin:round;stroke-miterlimit:2;"><g><ellipse cx="1797.07" cy="1439.35" rx="1499.58" ry="826.505" style="fill:#808da2;"/><ellipse cx="1709.49" cy="531.142" rx="538.603" ry="531.142" style="fill:#808da2;"/><path d="M2776.28,423.918c334.182,177.248 483.589,493.742 333.434,706.327c-150.154,212.585 -543.374,241.274 -877.557,64.026c-334.182,-177.247 -483.589,-493.742 -333.434,-706.326c150.155,-212.585 543.375,-241.274 877.557,-64.027Z" style="fill:#808da2;"/><path d="M2923.96,422.021c219.182,255.639 209.047,600.013 -22.619,768.546c-231.665,168.534 -597.696,97.815 -816.877,-157.824c-219.182,-255.639 -209.047,-600.013 22.618,-768.546c231.665,-168.534 597.696,-97.815 816.878,157.824Z" style="fill:#808da2;"/><path d="M3600.99,1420.39c-31.793,357.333 -353.044,627.703 -716.941,603.39c-363.897,-24.312 -633.523,-334.16 -601.73,-691.493c31.794,-357.332 353.044,-627.702 716.941,-603.39c363.897,24.313 633.523,334.16 601.73,691.493Z" style="fill:#808da2;"/><path d="M3060.83,2124.66c-200.055,239.675 -554.072,314.171 -790.066,166.254c-235.994,-147.917 -265.172,-462.592 -65.117,-702.267c200.055,-239.675 554.072,-314.171 790.066,-166.255c235.994,147.917 265.171,462.593 65.117,702.268Z" style="fill:#808da2;"/><path d="M2859.05,2700.76c-361.587,130.762 -760.925,17.287 -891.211,-253.246c-130.286,-270.532 57.501,-596.333 419.088,-727.095c361.587,-130.762 760.925,-17.286 891.211,253.246c130.287,270.533 -57.5,596.333 -419.088,727.095Z" style="fill:#808da2;"/><path d="M1924.13,2760.98c-312.934,-8.387 -549.374,-175.566 -527.668,-373.098c21.706,-197.532 293.391,-351.094 606.324,-342.707c312.933,8.386 549.373,175.566 527.667,373.097c-21.706,197.532 -293.39,351.094 -606.323,342.708Z" style="fill:#808da2;"/><path d="M698.891,2680.28c-298.878,-219.544 -363.936,-579.332 -145.192,-802.947c218.744,-223.615 638.988,-226.92 937.866,-7.377c298.879,219.544 363.937,579.332 145.193,802.947c-218.745,223.615 -638.988,226.92 -937.867,7.377Z" style="fill:#808da2;"/><path d="M29.781,1937.39c-103.863,-273.05 72.657,-569.237 393.943,-661.006c321.285,-91.77 666.451,55.407 770.313,328.457c103.863,273.05 -72.657,569.237 -393.942,661.006c-321.286,91.77 -666.452,-55.407 -770.314,-328.457Z" style="fill:#808da2;"/><path d="M114.715,1002.69c80.414,-296.481 403.206,-484.741 720.38,-420.142c317.174,64.599 509.393,357.751 428.978,654.232c-80.414,296.482 -403.206,484.741 -720.38,420.142c-317.174,-64.599 -509.393,-357.75 -428.978,-654.232Z" style="fill:#808da2;"/><path d="M756.074,457.094c275.579,-241.351 654.347,-304.37 845.304,-140.642c190.958,163.728 122.256,492.601 -153.322,733.952c-275.579,241.35 -654.347,304.37 -845.304,140.641c-190.958,-163.728 -122.256,-492.601 153.322,-733.951Z" style="fill:#808da2;"/></g></svg>