<?xml version="1.0" encoding="UTF-8" standalone="no"?><!DOCTYPE svg PUBLIC "-//W3C//DTD SVG 1.1//EN" "http://www.w3.org/Graphics/SVG/1.1/DTD/svg11.dtd"><svg width="100%" height="100%" viewBox="0 0 2619 2902" version="1.1" xmlns="http://www.w3.org/2000/svg" xmlns:xlink="http://www.w3.org/1999/xlink" xml:space="preserve" xmlns:serif="http://www.serif.com/" style="fill-rule:evenodd;clip-rule:evenodd;stroke-linecap:round;stroke-linejoin:round;stroke-miterlimit:1.5;"><g id="Layer1"><g><path d="M1361.79,47.138c95.539,18.261 73.377,130.096 -15.089,217.821c-76.938,76.296 -191.582,133.047 -191.582,133.047c0,0 -4.252,-131.187 54.853,-187.138c127.231,-120.443 41.064,-184.904 151.818,-163.73Z" style="fill:#efe9e7;stroke:#808da2;stroke-width:68.59px;"/><path d="M1122.36,34.573c91.659,-5.152 98.183,61.377 105.821,161.777c7.638,100.4 -78.145,202.046 -78.145,202.046c-0,-0 -114.156,-82.535 -94.897,-182.211c21.235,-109.876 10.519,-178.424 67.221,-181.612Z" style="fill:#efe9e7;stroke:#808da2;stroke-width:68.59px;"/><path d="M956.502,187.33c53.497,-44.17 99.604,-4.363 151.291,54.013c51.687,58.381 36.017,157.536 36.017,157.536c-0,-0 -82.513,-19.693 -112.499,-88.988c-31.523,-72.85 -113.064,-90.979 -74.809,-122.561Z" style="fill:#efe9e7;stroke:#808da2;stroke-width:68.59px;"/></g><path d="M332.834,2278.13c-33.361,11.139 -66.228,16.582 -97.745,15.517c-186.589,-6.315 -255.521,-238.512 -153.832,-518.209c87.336,-240.207 322.298,-438.862 490.977,-485.869c41.317,-527.921 255.379,-936.199 604.612,-962.767c349.146,-26.557 631.01,341.047 751.767,856.452c176.74,11.753 440.355,179.516 566.988,411.011c142.825,261.09 109.81,501.046 -73.679,535.509c-38.266,7.188 -80.076,4.873 -123.588,-5.662c-149.338,270.468 -448.936,479.169 -947.48,517.089c-494.676,37.63 -838.219,-122.622 -1018.02,-363.071Z" style="fill:#efe9e7;stroke:#808da2;stroke-width:68.59px;"/><path d="M1759.46,1551.22c-0,-0 186.101,566.351 620.623,581.726" style="fill:#efe9e7;stroke:#808da2;stroke-width:68.59px;"/><path d="M809.029,1623.54c0,-0 -101.207,588.211 -537.21,669.802" style="fill:#efe9e7;stroke:#808da2;stroke-width:68.59px;"/><path d="M580.624,2274.45c120.065,-106.913 345.222,-75.155 502.483,70.875c157.262,146.035 187.457,351.395 67.386,458.308c-120.066,106.918 -345.222,75.16 -502.484,-70.875c-157.261,-146.03 -187.456,-351.395 -67.385,-458.308Z" style="fill:#efe9e7;stroke:#808da2;stroke-width:68.59px;"/><path d="M2097.81,2159.06c-134.858,-87.522 -352.624,-22.074 -485.984,146.068c-133.36,168.137 -132.148,375.703 2.711,463.225c134.858,87.528 352.624,22.074 485.984,-146.063c133.366,-168.136 132.147,-375.702 -2.711,-463.23Z" style="fill:#efe9e7;stroke:#808da2;stroke-width:68.59px;"/><g><path d="M993.802,743.761c39.276,-2.985 74.935,44.137 79.577,105.168c4.642,61.031 -23.479,113.004 -62.754,115.994c-39.276,2.985 -74.93,-44.137 -79.572,-105.168c-4.642,-61.032 23.479,-113.004 62.749,-115.994Z" style="fill:#808da2;stroke:#808da2;stroke-width:4.17px;stroke-linecap:butt;stroke-miterlimit:2;"/><path d="M1433.64,710.345c39.27,-2.99 74.929,44.137 79.571,105.168c4.642,61.032 -23.478,113.004 -62.748,115.994c-39.276,2.985 -74.936,-44.137 -79.578,-105.168c-4.642,-61.031 23.479,-113.009 62.755,-115.994Z" style="fill:#808da2;stroke:#808da2;stroke-width:4.17px;stroke-linecap:butt;stroke-miterlimit:2;"/></g><path d="M1247.91,1149.96c76.801,-5.843 141.426,19.292 144.224,56.088c2.804,36.801 -57.278,71.418 -134.079,77.261c-76.801,5.844 -141.426,-19.292 -144.224,-56.087c-2.798,-36.801 57.284,-71.424 134.079,-77.262Z" style="fill:#efe9e7;stroke:#808da2;stroke-width:68.59px;"/><path d="M1314.6,1030.29c114.907,-8.165 188.164,-2.398 223.412,84.724c14.782,36.543 -33.427,102.908 -112.016,110.979c-52.494,5.394 -111.813,-54.118 -170.041,-49.213c-63.308,5.328 -122.507,72.483 -175.214,75.462c-77.246,4.373 -135.073,-52.416 -124.883,-92.948c24.203,-96.274 96.301,-108.785 206.292,-117.158c-0.005,-0.093 -0.011,-0.181 -0.022,-0.274c-3.687,-48.532 27.474,-90.529 69.548,-93.728c42.073,-3.204 79.231,33.602 82.924,82.134l-0,0.022Z" style="fill:#efe9e7;stroke:#808da2;stroke-width:68.59px;"/></g></svg>