<?xml version="1.0" encoding="UTF-8" standalone="no"?><!DOCTYPE svg PUBLIC "-//W3C//DTD SVG 1.1//EN" "http://www.w3.org/Graphics/SVG/1.1/DTD/svg11.dtd"><svg width="100%" height="100%" viewBox="0 0 2866 2866" version="1.1" xmlns="http://www.w3.org/2000/svg" xmlns:xlink="http://www.w3.org/1999/xlink" xml:space="preserve" xmlns:serif="http://www.serif.com/" style="fill-rule:evenodd;clip-rule:evenodd;stroke-linejoin:round;stroke-miterlimit:2;"><g><path d="M2344.6,2851.11l-1823.56,0c-279.723,0 -506.457,-226.793 -506.457,-506.516l0,-1823.5c0,-279.783 226.734,-506.517 506.457,-506.517l1823.56,0c279.723,0 506.516,226.734 506.516,506.517l0,1823.5c0,279.723 -226.793,506.516 -506.516,506.516Z" style="fill:#425874;fill-rule:nonzero;stroke:#324b68;stroke-width:29.17px;"/><path d="M1432.82,655.19c-211.183,-0 -237.679,0.897 -320.633,4.665c-82.775,3.768 -139.293,16.926 -188.755,36.184c-51.136,19.856 -94.497,46.411 -137.738,89.653c-43.242,43.241 -69.796,86.602 -89.653,137.738c-19.258,49.462 -32.416,105.981 -36.184,188.755c-3.768,82.954 -4.665,109.449 -4.665,320.632c0,211.184 0.897,237.678 4.665,320.633c3.768,82.774 16.926,139.293 36.184,188.755c19.857,51.136 46.411,94.497 89.653,137.738c43.241,43.241 86.602,69.856 137.738,89.713c49.462,19.198 105.98,32.356 188.755,36.124c82.954,3.768 109.45,4.665 320.633,4.665c211.183,-0 237.678,-0.897 320.632,-4.665c82.775,-3.768 139.294,-16.926 188.755,-36.124c51.136,-19.857 94.497,-46.472 137.738,-89.713c43.242,-43.241 69.797,-86.602 89.713,-137.738c19.198,-49.462 32.356,-105.981 36.124,-188.755c3.768,-82.955 4.665,-109.449 4.665,-320.633c0,-211.183 -0.897,-237.678 -4.665,-320.632c-3.768,-82.774 -16.926,-139.293 -36.124,-188.755c-19.916,-51.136 -46.471,-94.497 -89.713,-137.738c-43.241,-43.242 -86.602,-69.797 -137.738,-89.653c-49.461,-19.258 -105.98,-32.416 -188.755,-36.184c-82.954,-3.768 -109.449,-4.665 -320.632,-4.665Zm-0,140.131c207.654,-0 232.235,0.777 314.232,4.485c75.837,3.469 116.985,16.149 144.437,26.794c36.244,14.115 62.201,30.981 89.354,58.194c27.273,27.213 44.079,53.11 58.194,89.413c10.646,27.393 23.325,68.541 26.794,144.378c3.708,81.997 4.545,106.578 4.545,314.232c0,207.655 -0.837,232.236 -4.545,314.233c-3.469,75.837 -16.148,116.985 -26.794,144.377c-14.115,36.304 -30.921,62.201 -58.194,89.474c-27.153,27.153 -53.11,44.019 -89.354,58.133c-27.452,10.646 -68.6,23.326 -144.437,26.794c-81.997,3.709 -106.578,4.486 -314.232,4.486c-207.655,0 -232.236,-0.777 -314.233,-4.486c-75.777,-3.468 -116.985,-16.148 -144.377,-26.794c-36.304,-14.114 -62.201,-30.98 -89.414,-58.133c-27.212,-27.273 -44.079,-53.17 -58.193,-89.474c-10.646,-27.392 -23.326,-68.54 -26.794,-144.377c-3.708,-81.997 -4.486,-106.578 -4.486,-314.233c0,-207.654 0.778,-232.235 4.486,-314.232c3.468,-75.837 16.148,-116.985 26.794,-144.378c14.114,-36.303 30.981,-62.2 58.193,-89.413c27.213,-27.213 53.11,-44.079 89.414,-58.194c27.392,-10.645 68.6,-23.325 144.377,-26.794c81.997,-3.708 106.638,-4.485 314.233,-4.485Z" style="fill:#f0f3f5;fill-rule:nonzero;"/><path d="M1432.82,1692.03c-143.181,0 -259.21,-116.027 -259.21,-259.209c0,-143.181 116.029,-259.209 259.21,-259.209c143.18,0 259.209,116.028 259.209,259.209c-0,143.182 -116.029,259.209 -259.209,259.209Zm-0,-658.548c-220.513,-0 -399.341,178.826 -399.341,399.339c0,220.574 178.828,399.34 399.341,399.34c220.573,0 399.34,-178.766 399.34,-399.34c-0,-220.513 -178.767,-399.339 -399.34,-399.339Z" style="fill:#f0f3f5;fill-rule:nonzero;"/><path d="M1941.25,1017.69c-0,51.555 -41.806,93.361 -93.301,93.361c-51.555,-0 -93.361,-41.806 -93.361,-93.361c0,-51.495 41.806,-93.301 93.361,-93.301c51.495,0 93.301,41.806 93.301,93.301Z" style="fill:#f0f3f5;fill-rule:nonzero;"/></g></svg>