<?xml version="1.0" encoding="UTF-8" standalone="no"?><!DOCTYPE svg PUBLIC "-//W3C//DTD SVG 1.1//EN" "http://www.w3.org/Graphics/SVG/1.1/DTD/svg11.dtd"><svg width="100%" height="100%" viewBox="0 0 2315 2867" version="1.1" xmlns="http://www.w3.org/2000/svg" xmlns:xlink="http://www.w3.org/1999/xlink" xml:space="preserve" xmlns:serif="http://www.serif.com/" style="fill-rule:evenodd;clip-rule:evenodd;stroke-linecap:round;stroke-linejoin:round;stroke-miterlimit:1.5;"><g><g><clipPath id="_clip1"><path d="M2411.4,196.744l-2118.6,-266.137l-377.631,3006.14l2118.6,266.137l377.631,-3006.14Z"/></clipPath><g clip-path="url(#_clip1)"><path d="M374.954,109.732c667.683,277.266 1168.13,788.884 1079.61,1493.61c-88.527,704.721 -689.474,993.108 -1404.99,1096.62c1115.49,140.126 2068.8,-170.571 2173.02,-1000.14c104.21,-829.57 -732.148,-1449.96 -1847.64,-1590.09l0.002,-0Z" style="fill:#e4d9a9;stroke:#808da2;stroke-width:36.19px;"/></g></g><g id="Layer2"><path d="M1064,2688.28c0,-0 8.339,-498.701 67.277,-459.629c58.935,39.071 328.946,288.104 477.416,327.175c148.471,39.072 -245.817,-844.329 -198.932,-844.329c46.886,0 566.533,116.854 816.59,-144.743c250.056,-261.597 -797.895,-626.285 -958.088,-743.498" style="fill:none;stroke:#808da2;stroke-width:28.97px;"/><path d="M1215.47,730.33c-160.192,-117.215 -3.188,-403.282 -52.187,-442.354c-48.998,-39.071 -369.383,-24.135 -443.618,-8.505" style="fill:none;stroke:#808da2;stroke-width:28.97px;"/><path d="M1215.47,730.33c-15.628,109.399 183.186,-143.463 401.984,-213.791" style="fill:none;stroke:#808da2;stroke-width:28.97px;"/><path d="M1424.63,434.627c-121.186,-31.056 -452.926,-41.615 -481.3,-4.085" style="fill:none;stroke:#808da2;stroke-width:28.97px;"/><path d="M719.669,289.54c-0,-0 -198.988,338.464 -71.339,582.329" style="fill:none;stroke:#808da2;stroke-width:28.97px;"/><path d="M935.603,431.771c0,-0 93.356,148.604 -19.051,440.098" style="fill:none;stroke:#808da2;stroke-width:28.97px;"/><path d="M1167.61,651.82c-0,-0 -64.451,364.921 11.047,677.49" style="fill:none;stroke:#808da2;stroke-width:28.97px;"/></g><g id="Layer1"><g><path d="M662.903,1863.84c30.255,5.782 23.237,41.198 -4.778,68.979c-24.365,24.161 -60.67,42.133 -60.67,42.133c-0,-0 -1.347,-41.544 17.371,-59.262c40.291,-38.142 13.004,-58.556 48.077,-51.85Z" style="fill:#efe9e7;stroke:#808da2;stroke-width:21.72px;"/><path d="M587.08,1859.86c29.026,-1.632 31.092,19.436 33.511,51.231c2.419,31.794 -24.747,63.983 -24.747,63.983c0,0 -36.151,-26.137 -30.052,-57.702c6.725,-34.795 3.331,-56.503 21.288,-57.512Z" style="fill:#efe9e7;stroke:#808da2;stroke-width:21.72px;"/><path d="M534.557,1908.24c16.942,-13.987 31.543,-1.381 47.911,17.105c16.368,18.488 11.406,49.888 11.406,49.888c-0,0 -26.13,-6.236 -35.626,-28.18c-9.983,-23.07 -35.805,-28.811 -23.691,-38.813Z" style="fill:#efe9e7;stroke:#808da2;stroke-width:21.72px;"/></g><path d="M337.055,2570.35c-10.564,3.527 -20.973,5.251 -30.953,4.914c-59.089,-2 -80.918,-75.532 -48.715,-164.106c27.657,-76.068 102.064,-138.978 155.481,-153.864c13.084,-167.181 80.873,-296.473 191.468,-304.887c110.566,-8.41 199.827,108.002 238.068,271.22c55.969,3.722 139.45,56.849 179.552,130.158c45.23,82.682 34.775,158.67 -23.332,169.584c-12.118,2.276 -25.359,1.543 -39.138,-1.793c-47.292,85.651 -142.168,151.742 -300.046,163.751c-156.653,11.916 -265.445,-38.832 -322.385,-114.977Z" style="fill:#efe9e7;stroke:#808da2;stroke-width:21.72px;"/><path d="M788.835,2340.15c0,0 58.934,179.351 196.538,184.22" style="fill:#efe9e7;stroke:#808da2;stroke-width:21.72px;"/><path d="M487.856,2363.05c-0,-0 -32.05,186.274 -170.123,212.112" style="fill:#efe9e7;stroke:#808da2;stroke-width:21.72px;"/><path d="M415.525,2569.18c38.022,-33.857 109.324,-23.8 159.126,22.444c49.801,46.246 59.363,111.279 21.339,145.136c-38.022,33.859 -109.324,23.802 -159.126,-22.444c-49.801,-46.244 -59.363,-111.279 -21.339,-145.136Z" style="fill:#efe9e7;stroke:#808da2;stroke-width:21.72px;"/><path d="M895.984,2532.64c-42.706,-27.716 -111.668,-6.99 -153.9,46.257c-42.233,53.245 -41.849,118.976 0.858,146.693c42.707,27.718 111.668,6.99 153.901,-46.255c42.233,-53.245 41.848,-118.977 -0.859,-146.695Z" style="fill:#efe9e7;stroke:#808da2;stroke-width:21.72px;"/><g><path d="M546.369,2084.45c12.438,-0.945 23.731,13.977 25.201,33.304c1.47,19.328 -7.435,35.786 -19.873,36.733c-12.438,0.945 -23.729,-13.977 -25.199,-33.304c-1.47,-19.328 7.436,-35.786 19.871,-36.733Z" style="fill:#808da2;stroke:#808da2;stroke-width:1.22px;stroke-linecap:butt;stroke-miterlimit:2;"/><path d="M685.655,2073.86c12.436,-0.947 23.729,13.977 25.199,33.304c1.47,19.328 -7.435,35.786 -19.871,36.733c-12.438,0.945 -23.731,-13.977 -25.201,-33.304c-1.47,-19.328 7.435,-35.788 19.873,-36.733Z" style="fill:#808da2;stroke:#808da2;stroke-width:1.22px;stroke-linecap:butt;stroke-miterlimit:2;"/></g><path d="M626.839,2213.08c24.321,-1.851 44.787,6.109 45.673,17.762c0.888,11.654 -18.139,22.616 -42.46,24.467c-24.321,1.85 -44.786,-6.11 -45.673,-17.762c-0.886,-11.654 18.141,-22.618 42.46,-24.467Z" style="fill:#efe9e7;stroke:#808da2;stroke-width:21.72px;"/><path d="M647.96,2175.18c36.388,-2.586 59.587,-0.759 70.749,26.83c4.682,11.573 -10.585,32.589 -35.473,35.145c-16.623,1.708 -35.408,-17.138 -53.848,-15.585c-20.048,1.688 -38.795,22.954 -55.486,23.898c-24.462,1.384 -42.775,-16.6 -39.548,-29.435c7.665,-30.488 30.497,-34.45 65.328,-37.101c-0.001,-0.03 -0.003,-0.058 -0.007,-0.087c-1.167,-15.369 8.701,-28.669 22.024,-29.682c13.324,-1.015 25.091,10.641 26.261,26.01l-0,0.007Z" style="fill:#efe9e7;stroke:#808da2;stroke-width:21.72px;"/></g><g><path d="M651.57,790.478l18.918,58.222l61.217,-0l-49.525,35.982l18.917,58.22l-49.527,-35.982l-49.524,35.982l18.917,-58.22l-49.525,-35.982l61.215,-0l18.917,-58.222Z" style="fill:#e4d9a9;stroke:#808da2;stroke-width:21.72px;"/><path d="M854.881,802.982l63.774,49.066l66.372,-45.49l-26.959,75.815l63.774,49.068l-80.434,-2.21l-26.958,75.814l-22.754,-77.182l-80.434,-2.21l66.371,-45.49l-22.752,-77.181Z" style="fill:#e4d9a9;stroke:#808da2;stroke-width:21.72px;"/><path d="M1109.24,1235.12l71.794,55.236l74.718,-51.21l-30.349,85.349l71.794,55.238l-90.549,-2.488l-30.349,85.349l-25.614,-86.887l-90.55,-2.488l74.719,-51.213l-25.614,-86.886Z" style="fill:#e4d9a9;stroke:#808da2;stroke-width:21.72px;"/></g></g></svg>