<?xml version="1.0" encoding="UTF-8" standalone="no"?><!DOCTYPE svg PUBLIC "-//W3C//DTD SVG 1.1//EN" "http://www.w3.org/Graphics/SVG/1.1/DTD/svg11.dtd"><svg width="100%" height="100%" viewBox="0 0 2866 2866" version="1.1" xmlns="http://www.w3.org/2000/svg" xmlns:xlink="http://www.w3.org/1999/xlink" xml:space="preserve" xmlns:serif="http://www.serif.com/" style="fill-rule:evenodd;clip-rule:evenodd;stroke-linejoin:round;stroke-miterlimit:2;"><g><path d="M2344.6,2851.11l-1823.56,0c-279.723,0 -506.457,-226.793 -506.457,-506.516l0,-1823.56c0,-279.724 226.734,-506.457 506.457,-506.457l1823.56,0c279.723,0 506.516,226.733 506.516,506.457l0,1823.56c0,279.723 -226.793,506.516 -506.516,506.516Z" style="fill:#425874;fill-rule:nonzero;stroke:#324b68;stroke-width:29.17px;"/><path d="M978.992,1564.58c22.069,9.091 41.986,0.419 48.445,-24.103c4.426,-16.985 15.012,-59.868 19.737,-77.691c6.519,-24.342 3.947,-32.775 -13.936,-53.887c-38.935,-45.992 -63.815,-105.562 -63.815,-189.831c-0,-244.497 182.894,-463.395 476.313,-463.395c259.807,-0 402.57,158.791 402.57,370.871c-0,278.946 -123.444,514.351 -306.757,514.351c-101.196,0 -176.913,-83.671 -152.691,-186.302c29.127,-122.607 85.407,-254.903 85.407,-343.36c-0,-79.246 -42.524,-145.274 -130.442,-145.274c-103.528,-0 -186.662,107.057 -186.662,250.417c0,91.327 30.921,153.109 30.921,153.109c-0,0 -105.92,448.682 -124.461,527.211c-37.021,156.458 -5.562,348.323 -2.931,367.701c1.615,11.543 16.328,14.175 23.027,5.562c9.569,-12.44 132.774,-164.652 174.64,-316.625c11.901,-43.062 68.121,-265.968 68.121,-265.968c33.553,64.175 131.818,120.574 236.303,120.574c311.063,0 522.067,-283.491 522.067,-663.095c-0,-286.96 -243.061,-554.243 -612.557,-554.243c-459.687,-0 -691.444,329.603 -691.444,604.423c0,166.446 62.978,314.472 198.145,369.555Z" style="fill:#f0f3f5;fill-rule:nonzero;"/></g></svg>